<mxfile host="app.diagrams.net" modified="2020-10-22T12:38:51.256Z" agent="5.0 (Windows NT 10.0; Win64; x64) AppleWebKit/537.36 (KHTML, like Gecko) Chrome/86.0.4240.75 Safari/537.36" etag="HCGbyboxdZUpItu252Oz" version="13.8.1" type="github">
  <diagram id="C5RBs43oDa-KdzZeNtuy" name="Page-1">
    <mxGraphModel dx="1695" dy="450" grid="1" gridSize="10" guides="1" tooltips="1" connect="1" arrows="1" fold="1" page="1" pageScale="1" pageWidth="827" pageHeight="1169" math="0" shadow="0">
      <root>
        <mxCell id="WIyWlLk6GJQsqaUBKTNV-0" />
        <mxCell id="WIyWlLk6GJQsqaUBKTNV-1" parent="WIyWlLk6GJQsqaUBKTNV-0" />
        <mxCell id="Fg37B_cXTZ_7IZjRjfY--3" value="" style="edgeStyle=orthogonalEdgeStyle;shape=flexArrow;rounded=0;orthogonalLoop=1;jettySize=auto;html=1;" edge="1" parent="WIyWlLk6GJQsqaUBKTNV-1" source="WIyWlLk6GJQsqaUBKTNV-7" target="Fg37B_cXTZ_7IZjRjfY--1">
          <mxGeometry relative="1" as="geometry" />
        </mxCell>
        <mxCell id="WIyWlLk6GJQsqaUBKTNV-7" value="client" style="rounded=1;whiteSpace=wrap;html=1;fontSize=12;glass=0;strokeWidth=1;shadow=0;" parent="WIyWlLk6GJQsqaUBKTNV-1" vertex="1">
          <mxGeometry x="-10" y="100" width="110" height="90" as="geometry" />
        </mxCell>
        <mxCell id="Fg37B_cXTZ_7IZjRjfY--1" value="" style="rounded=1;whiteSpace=wrap;html=1;" vertex="1" parent="WIyWlLk6GJQsqaUBKTNV-1">
          <mxGeometry x="230" y="10" width="420" height="150" as="geometry" />
        </mxCell>
        <mxCell id="Fg37B_cXTZ_7IZjRjfY--4" value="" style="shape=flexArrow;endArrow=classic;html=1;" edge="1" parent="WIyWlLk6GJQsqaUBKTNV-1">
          <mxGeometry width="50" height="50" relative="1" as="geometry">
            <mxPoint x="435" y="950" as="sourcePoint" />
            <mxPoint x="315" y="950" as="targetPoint" />
          </mxGeometry>
        </mxCell>
        <mxCell id="Fg37B_cXTZ_7IZjRjfY--7" value="&lt;span&gt;view&lt;/span&gt;" style="rounded=1;whiteSpace=wrap;html=1;" vertex="1" parent="WIyWlLk6GJQsqaUBKTNV-1">
          <mxGeometry x="230" y="30" width="70" height="60" as="geometry" />
        </mxCell>
        <mxCell id="Fg37B_cXTZ_7IZjRjfY--8" value="" style="endArrow=classic;startArrow=classic;html=1;" edge="1" parent="WIyWlLk6GJQsqaUBKTNV-1">
          <mxGeometry width="50" height="50" relative="1" as="geometry">
            <mxPoint x="390" y="310" as="sourcePoint" />
            <mxPoint x="440" y="260" as="targetPoint" />
          </mxGeometry>
        </mxCell>
        <mxCell id="Fg37B_cXTZ_7IZjRjfY--9" value="&lt;hr&gt;&lt;hr&gt;&lt;hr&gt;&lt;hr&gt;&lt;hr&gt;&lt;hr&gt;" style="rounded=1;whiteSpace=wrap;html=1;" vertex="1" parent="WIyWlLk6GJQsqaUBKTNV-1">
          <mxGeometry x="240" y="270" width="420" height="60" as="geometry" />
        </mxCell>
        <mxCell id="Fg37B_cXTZ_7IZjRjfY--10" value="controller" style="rounded=1;whiteSpace=wrap;html=1;" vertex="1" parent="WIyWlLk6GJQsqaUBKTNV-1">
          <mxGeometry x="379" y="170" width="70" height="60" as="geometry" />
        </mxCell>
        <mxCell id="Fg37B_cXTZ_7IZjRjfY--11" value="Model" style="ellipse;whiteSpace=wrap;html=1;" vertex="1" parent="WIyWlLk6GJQsqaUBKTNV-1">
          <mxGeometry x="520" y="60" width="120" height="80" as="geometry" />
        </mxCell>
        <mxCell id="Fg37B_cXTZ_7IZjRjfY--17" value="&lt;strong style=&quot;box-sizing: inherit ; line-height: inherit ; color: rgb(34 , 34 , 34) ; font-family: &amp;#34;source sans pro&amp;#34; , &amp;#34;arial&amp;#34; , sans-serif ; font-size: 18px ; background-color: rgb(255 , 255 , 255)&quot;&gt;Business&amp;nbsp; Layer&lt;/strong&gt;" style="text;html=1;align=center;verticalAlign=middle;resizable=0;points=[];autosize=1;" vertex="1" parent="WIyWlLk6GJQsqaUBKTNV-1">
          <mxGeometry x="360" y="320" width="150" height="20" as="geometry" />
        </mxCell>
        <mxCell id="Fg37B_cXTZ_7IZjRjfY--18" value="controller" style="shape=ext;double=1;rounded=1;whiteSpace=wrap;html=1;" vertex="1" parent="WIyWlLk6GJQsqaUBKTNV-1">
          <mxGeometry x="354" y="10" width="120" height="80" as="geometry" />
        </mxCell>
        <mxCell id="Fg37B_cXTZ_7IZjRjfY--19" value="spring handler" style="shape=ext;double=1;rounded=1;whiteSpace=wrap;html=1;" vertex="1" parent="WIyWlLk6GJQsqaUBKTNV-1">
          <mxGeometry x="270" y="280" width="60" height="40" as="geometry" />
        </mxCell>
        <mxCell id="Fg37B_cXTZ_7IZjRjfY--20" value="interface" style="shape=ext;double=1;whiteSpace=wrap;html=1;aspect=fixed;" vertex="1" parent="WIyWlLk6GJQsqaUBKTNV-1">
          <mxGeometry x="378" y="249" width="71" height="71" as="geometry" />
        </mxCell>
        <mxCell id="Fg37B_cXTZ_7IZjRjfY--21" value="service&amp;nbsp;" style="shape=ext;double=1;rounded=1;whiteSpace=wrap;html=1;" vertex="1" parent="WIyWlLk6GJQsqaUBKTNV-1">
          <mxGeometry x="510" y="270" width="120" height="50" as="geometry" />
        </mxCell>
        <mxCell id="Fg37B_cXTZ_7IZjRjfY--22" value="" style="rounded=1;whiteSpace=wrap;html=1;" vertex="1" parent="WIyWlLk6GJQsqaUBKTNV-1">
          <mxGeometry x="200" y="380" width="560" height="60" as="geometry" />
        </mxCell>
        <mxCell id="Fg37B_cXTZ_7IZjRjfY--23" value="&lt;strong style=&quot;box-sizing: inherit ; line-height: inherit ; color: rgb(34 , 34 , 34) ; font-family: &amp;#34;source sans pro&amp;#34; , &amp;#34;arial&amp;#34; , sans-serif ; font-size: 18px ; background-color: rgb(255 , 255 , 255)&quot;&gt;Data Access Layer&lt;/strong&gt;" style="text;html=1;align=center;verticalAlign=middle;resizable=0;points=[];autosize=1;" vertex="1" parent="WIyWlLk6GJQsqaUBKTNV-1">
          <mxGeometry x="360" y="430" width="170" height="20" as="geometry" />
        </mxCell>
        <mxCell id="Fg37B_cXTZ_7IZjRjfY--24" value="JPA Interface" style="rounded=1;whiteSpace=wrap;html=1;" vertex="1" parent="WIyWlLk6GJQsqaUBKTNV-1">
          <mxGeometry x="310" y="370" width="62" height="60" as="geometry" />
        </mxCell>
        <mxCell id="Fg37B_cXTZ_7IZjRjfY--25" value="" style="shape=datastore;whiteSpace=wrap;html=1;" vertex="1" parent="WIyWlLk6GJQsqaUBKTNV-1">
          <mxGeometry x="355" y="480" width="210" height="60" as="geometry" />
        </mxCell>
        <mxCell id="Fg37B_cXTZ_7IZjRjfY--26" value="&lt;b&gt;RDBMS&lt;/b&gt;" style="text;html=1;align=center;verticalAlign=middle;resizable=0;points=[];autosize=1;" vertex="1" parent="WIyWlLk6GJQsqaUBKTNV-1">
          <mxGeometry x="430" y="565" width="60" height="20" as="geometry" />
        </mxCell>
      </root>
    </mxGraphModel>
  </diagram>
</mxfile>
